<svg xmlns="http://www.w3.org/2000/svg" width="23.519" height="23.607" viewBox="0 0 23.519 23.607">
  <path id="Trazado_2623" data-name="Trazado 2623" d="M335.148,546.641c-4.048,1.365.026-.007-4.065,1.375,0,.018,0,.028,0,.043a3.429,3.429,0,1,1-.368-1.523c.051.1,8.182-2.022,11.666-6.681a11.735,11.735,0,0,0-6.348-4.142,11.88,11.88,0,0,0-2.94-.373,11.553,11.553,0,0,0-5.258,1.234,11.819,11.819,0,0,0-3.236,2.368,10.894,10.894,0,0,0-2.68,4.369c-2.3,7.046,3.285,9.456,5.745,9.456a7.749,7.749,0,0,0,4.809-1.7A7.483,7.483,0,0,0,335.148,546.641Zm9.724-.242a20.886,20.886,0,0,0-5.961-.362c-1.474,7.784-10.149,12.38-7.275,12.793a10.662,10.662,0,0,0,1.435.117,11.831,11.831,0,0,0,11.82-11.785C344.894,546.911,344.888,546.656,344.872,546.4Z" transform="translate(-321.373 -535.339)" fill="#fff"/>
</svg>
